<svg xmlns:svg="http://www.w3.org/2000/svg" xmlns="http://www.w3.org/2000/svg" viewBox="0 0 800 180" height="180px" width="800px" y="0px" x="0px" version="1.1">
<g><rect style="fill:#ff7100" height="103.881" width="107.795" y="38.888" x="7.383"/>
<g style="fill:#007d70">
<rect style="fill:#007d70" height="152.38" width="10.507" y="16.13" x="146.272"/>
<path d="m 232.497,47.498 c -25.677,0 -47.122,17.105 -47.122,45.005 0,27.902 20.568,45.007 47.122,45.007 26.549,0 47.269,-15.903 47.269,-45.154 0,-29.247 -19.257,-44.858 -47.269,-44.858 z m -0.147,71.776 c -22.031,0 -22.468,-23.927 -22.468,-28.449 0,-10.065 3.942,-25.385 23.489,-25.385 19.549,0 22.176,16.072 22.176,25.385 0,9.316 -1.169,28.449 -23.197,28.449 z"/>
<path d="m 287.789,49.979 c 0,0 0.803,92.49 0.803,118.53 0,0 11.16,0 22.537,0 0,0 0.294,-15.822 0.294,-33.911 26.843,0 65.36,8.17 65.36,-42.096 0,-54.778 -53.494,-42.523 -88.994,-42.523 z m 23.339,67.106 c 0,-23.632 0,-49.404 0,-49.404 16.633,0 42.894,-5.057 42.894,24.608 0,30.828 -25.676,24.796 -42.894,24.796 z"/>
<rect height="84.619" width="23.929" y="49.979" x="385.535"/>
<rect height="20.036" width="24.805" y="18.464" x="385.096"/>
<path d="m 506.334,134.522 c 0,-92.785 5.059,-84.543 -81.304,-84.543 0,0 0,71.19 0,84.619 0,0 8.555,0 22.748,0 0,-16.73 0.589,-52.135 0.589,-67.308 10.166,0 13.424,-0.012 24.516,-0.012 11.467,0 10.888,21.604 10.888,67.319 8.758,0.002 22.563,-0.075 22.563,-0.075 z"/>
</g><g style="fill:#ff7100">
<path d="m 597.954,49.789 h -50.285 c -25.385,0 -30.833,13.222 -30.833,26.447 0,27.24 12.588,24.513 55.178,24.513 9.115,0 8.954,17.499 0,17.499 -12.545,0 -50.617,0.058 -52.65,0.058 0,9.913 0.01,16.653 0.01,16.653 22.363,0 58.084,0 68.368,0 7.097,0 14.883,-11.542 14.883,-26.524 0,-19.938 -15.372,-25.093 -21.19,-25.093 -15.281,0 -17.124,-0.102 -33.702,-0.102 -9.102,0 -9.102,-15.656 0,-15.656 23.926,0 47.985,-0.002 50.318,-0.002 -0.001,-7.587 -0.097,-17.793 -0.097,-17.793 z"/>
<path d="m 612.224,49.8775 v 62.3485 c 0,25.594 21.076,22.733 58.194,22.733 0,4.461 -2.513,15.681 -13.719,15.681 h -41.768 c 0,9.339 0,16.374 0,16.374 h 48.912 c 21.998,0 30.98,-17.404 30.98,-52.784 0,-20.302 -0.584,-38.9735 -0.584,-64.3515 h -23.628 c 0,22.252 -0.189,66.6375 -0.189,66.6375 h -29.945 c -5.249,0 -4.783,-2.285 -4.783,-36.578 0,-19.024 -0.1,-30.2385 -0.1,-30.2385 -7.585,-0.002 -23.37,0.178 -23.37,0.178 z"/>
<path d="m 788.193,49.789 h -50.285 c -25.376,0 -30.824,13.222 -30.824,26.447 0,27.24 12.583,24.513 55.178,24.513 9.111,0 8.949,17.499 0,17.499 -12.545,0 -50.622,0.058 -52.655,0.058 0,9.913 0.005,16.653 0.005,16.653 22.373,0 58.09,0 68.374,0 7.097,0 14.882,-11.542 14.882,-26.524 0,-19.938 -15.371,-25.093 -21.195,-25.093 -15.276,0 -17.119,-0.102 -33.697,-0.102 -9.102,0 -9.102,-15.656 0,-15.656 23.927,0 47.981,-0.002 50.318,-0.002 -0.001,-7.587 -0.101,-17.793 -0.101,-17.793 z"/>
</g></g></svg>