<svg xmlns="http://www.w3.org/2000/svg" viewBox="28.28 47.21 447.76 101.8"><path d="M28.3 47.22c14.24.01 28.48-.03 42.72.02 8.95-.04 17.71 4.6 22.8 11.92 6.83 9.45 7.37 22.92 1.34 32.88-3.19 5.34-8.11 9.54-13.78 12.06 10.94 13.95 21.82 27.94 32.75 41.9-8.25-.03-16.5.06-24.75-.05-10.09-13.32-20.29-26.56-30.47-39.81-3.15.02-6.29.02-9.44.01-.01 13.28 0 26.56 0 39.84-7.06.01-14.13.03-21.19-.02.04-32.91 0-65.83.02-98.75m21.17 19.22c-.01 6.82 0 13.65-.01 20.48 6.22-.02 12.44.05 18.66-.02 5.36.22 10.07-4.67 10.02-9.96.33-5.25-4.12-10.37-9.45-10.46-6.4-.12-12.81 0-19.22-.04zm84.33-19.22c11.98-.01 23.96 0 35.94 0 .01 5.94.01 11.88.01 17.82-2.47-.01-4.93.02-7.4.01.03 21.09-.03 42.18.03 63.27 2.46-.01 4.91-.01 7.37 0V146H133.8c.01-5.9-.03-11.8.02-17.69 2.45.01 4.91 0 7.36 0 .01-21.09 0-42.17.01-63.26-2.47.01-4.93-.02-7.39-.01-.01-5.94 0-11.88 0-17.82zm55.16 0c23.82-.01 47.64.01 71.47-.01.02 6.41 0 12.81.01 19.22-8.41.02-16.82 0-25.22.01V146h-21.05c.05-26.49-.09-52.97.07-79.46-8.42-.25-16.85-.03-25.28-.11-.01-6.4-.01-12.81 0-19.21zm87.74.01c23.83-.02 47.66-.01 71.49-.01-.01 6.41 0 12.81-.01 19.21-8.43.09-16.87-.15-25.29.12.18 26.48.03 52.97.08 79.45h-21.04c-.03-26.53.04-53.06-.04-79.58-8.39.04-16.79.01-25.18.01-.02-6.4 0-12.8-.01-19.2zm121.61.77c11.8-.02 23.6-.04 35.4.02 14.07 33.68 28.22 67.32 42.33 100.98-13.57-.02-27.15.04-40.73-.03-6.89-16.93-13.42-34.06-20.74-50.8-6.77 16.99-14.07 33.77-20.88 50.75-12.58.18-25.17.03-37.76.08 14.14-33.66 28.26-67.33 42.38-101z" fill="#1abc9c"/></svg>